<svg width="55" height="44" viewBox="0 0 55 44" fill="none" xmlns="http://www.w3.org/2000/svg">
<path d="M45.3232 24.5942C45.3875 24.1894 45.7302 21.8419 46.964 21.9006C48.9094 21.9931 49.1065 24.0179 49.138 25.4512C49.1902 27.8323 48.993 29.3471 48.1535 31.6545C47.4772 33.5133 46.7513 34.4965 45.2001 35.7764C42.9615 37.6236 38.1039 38.2251 38.1039 38.2251C38.1039 38.2251 37.8349 37.6629 37.5706 37.3681C37.3063 37.0732 36.8323 36.7559 36.8323 36.7559C36.8323 36.7559 40.1569 35.4112 41.7545 33.8583C43.3602 32.2975 44.3414 31.2432 44.913 29.0834C45.3228 27.535 45.2589 24.9989 45.3232 24.5942Z" fill="#F9D61B"/>
<path d="M5.78086 37.1232C5.2066 37.4803 6.34212 38.8308 7.17551 39.531C8.14731 40.3476 10.0058 40.4368 10.293 40.4697C10.5801 40.5026 15.2152 40.2656 15.2152 40.2656L16.1177 41.2451L15.7485 40.2248C15.7485 40.2248 20.4701 40.5308 22.6807 40.0208C24.8913 39.5108 27.2748 37.7354 27.2748 37.7354C27.2748 37.7354 24.4803 38.1333 22.6807 38.1027C19.0585 38.041 16.9105 37.6417 13.6155 36.1437C10.1652 34.5751 8.16769 33.2955 5.90392 30.2669C5.38168 29.5682 4.85353 28.6254 4.42109 27.7774C4.22985 27.4024 4.05733 27.046 3.91232 26.7375C3.61555 26.283 3.2016 25.8671 2.70444 25.9409C1.24686 26.1575 1.35074 28.1855 2.04812 29.5323C2.74549 30.8791 4.41948 33.555 6.60124 35.5316C7.79519 36.6132 8.57019 37.1833 9.92378 37.9802C11.2774 38.7771 13.3284 39.6127 13.3284 39.6127C13.3284 39.6127 12.7043 39.6769 12.3029 39.6943C11.8228 39.7151 11.0313 39.6127 11.0313 39.6127C11.0313 39.6127 9.92378 38.2251 9.67767 38.5924C9.60941 38.6943 9.34952 39.1637 9.34952 39.1637C9.34952 39.1637 7.99589 37.817 7.74978 38.1027C7.53085 38.3568 7.74978 38.8781 7.74978 38.8781C7.74978 38.8781 6.10902 36.9191 5.78086 37.1232Z" fill="#F9D61B"/>
<path d="M38.3089 38.5516V39.2454C38.3089 39.2454 41.1831 39.9571 43.0371 39.9503C44.6593 39.9444 45.6415 39.8502 47.139 39.2157C48.4931 38.642 49.1787 38.0651 50.2382 37.0824C52.1104 35.3459 52.638 33.855 53.1916 31.3688C53.6178 29.4549 53.2399 26.8388 53.1988 26.4307C53.1578 26.0226 53.0128 23.4788 51.6811 23.4106C50.3917 23.3447 49.9583 25.0839 49.7122 26.145C49.4661 27.2061 49.6483 29.4097 49.0149 31.3688C48.5825 32.7061 48.4158 33.4478 47.4972 34.6337C46.4311 36.0099 45.5312 36.5903 43.9696 37.3681C41.9496 38.374 38.3089 38.5516 38.3089 38.5516Z" fill="#1FF91B"/>
<path d="M30.5564 14.7587L35.5607 20.513C35.5607 20.513 38.3627 18.4994 36.176 15.2484C33.9892 11.9974 30.5564 14.7587 30.5564 14.7587Z" fill="#F9D61B"/>
<path d="M22.1064 30.3893L22.2295 23.6963L20.2196 23.6147L23.7062 20.3498V16.9625L26.2494 17.0441L26.3314 17.6971L29.5719 14.5954L35.3146 21.1252H33.5507L29.5719 16.3911L23.5831 22.2271L23.4601 30.0629L22.1064 30.3893Z" fill="#504923"/>
<path d="M27.7671 30.0629V24.7166L30.7204 24.7982V30.6342L27.7671 30.0629Z" fill="#5B71E5"/>
<path d="M20.4247 32.7564C20.4247 32.7564 25.388 31.981 26.1263 31.981C26.8646 31.981 27.562 32.048 28.2183 32.135C29.3399 32.2838 30.7349 32.8832 31.951 33.2053C33.764 33.6856 35.2325 33.8991 35.2325 33.8991C35.2325 33.8991 32.432 35.6032 30.1051 36.1437C28.7217 36.4651 26.1263 36.6335 26.1263 36.6335C26.1263 36.6335 25.9622 36.6335 24.4445 35.8172C22.9268 35.001 21.7373 34.6887 20.4247 32.7564Z" fill="#585234"/>
<path d="M25.4699 37.3681C25.4699 37.3681 23.3272 37.2939 21.9833 37.0416C17.4318 36.1869 14.8422 34.6246 11.6055 31.328C8.25138 27.9119 6.73277 25.1551 6.02692 20.4314C6.00305 20.2717 5.98203 20.1083 5.96381 19.9417M14.361 29.0426C14.2707 28.9067 14.1861 28.7706 14.1077 28.6345C11.2896 23.7431 10.9803 19.2605 12.4669 13.82C13.8682 8.69215 16.0652 5.38876 20.7528 2.84166C23.4398 1.3816 26.9291 0.404621 29.818 1.41343C31.7774 2.09768 32.1971 3.69884 32.1971 3.69884C32.1971 3.69884 33.1405 8.71861 29.818 9.69808C26.4954 10.6775 24.425 10.6282 21.7372 12.7589C18.7956 15.0909 17.1431 17.3706 16.6919 20.9212C16.1035 25.5512 17.1244 28.7629 19.7273 32.4707C21.5152 35.0175 25.593 37.3681 25.593 37.3681C25.593 37.3681 17.1869 33.2964 14.361 29.0426ZM14.361 29.0426C14.361 29.0426 12.2075 25.1871 11.6055 22.472C11.06 20.0116 10.9667 18.4887 11.2438 16.0304C11.5672 13.16 12.5079 12.3916 13.5334 8.92267C13.8593 7.82011 13.4234 6.42378 11.9747 6.35156C10.4424 6.27518 9.08174 6.48996 7.79076 9.08591C6.35187 11.9793 5.59949 16.6109 5.96381 19.9417M5.96381 19.9417C5.96381 19.9417 5.49368 16.6768 3.8119 17.289C1.26872 18.2147 2.58133 22.472 2.58133 22.472L3.44273 25.6961M3.44273 25.6961C3.44273 25.6961 2.58137 25.0839 1.80197 25.6961C0.430044 26.7736 1.10474 29.3691 1.72 30.1445C2.33525 30.9199 3.88252 33.7018 5.78088 35.5316C6.94342 36.6521 8.89826 38.1027 8.89826 38.1027C8.89826 38.1027 8.11897 37.4497 7.74978 37.4497C7.38058 37.4497 7.38061 37.7762 7.38061 37.7762C7.38061 37.7762 6.88642 36.8574 6.15004 36.5439C4.42621 35.8102 5.28864 39.8167 8.11895 40.5026C8.11895 40.5026 9.90159 41.0003 11.2774 41.0003C12.631 41.0003 14.641 40.837 14.641 40.837L15.9126 41.6532C15.9126 41.6532 17.2934 42.3369 18.4147 42.5919C19.536 42.8469 22.1475 43 22.1475 43C22.1475 43 24.9094 42.844 26.8236 42.4695C28.7379 42.0949 31.2947 41.0819 31.2947 41.0819H33.4277C33.4277 41.0819 34.6172 42.2121 35.8888 42.3878C37.1604 42.5635 37.7347 41.694 37.7347 41.694C37.7347 41.694 42.862 43.1632 43.5594 42.4695C44.2567 41.7757 41.5494 40.3881 41.5494 40.3881C41.5494 40.3881 45.0085 40.6579 47.005 39.8983C50.0665 38.7337 51.7396 36.7315 53.0348 33.7359C54.7153 29.849 54.1013 23.329 51.9683 23.0025C49.8353 22.676 49.4661 25.0023 49.4661 25.0023M3.44273 25.6961C3.44273 25.6961 3.62262 26.1212 3.91232 26.7375M31.0896 9.49403L32.6483 11.7386L33.0175 8.06563L33.8789 6.75968L34.8223 11.9019L37.1194 7.82077L37.4475 9.49403L36.6682 12.7997L39.2524 10.9224L40.565 10.7184L37.9808 14.5138L41.9596 13.7792L42.1237 14.7587L38.7191 16.3911L42.821 17.6154L41.8366 18.3092L38.6371 18.6765L41.3444 20.962L41.0982 21.9006L38.1449 20.6763L40.4419 25.0023L35.5607 21.7374L33.3456 21.6149L29.5719 17.289L24.0343 22.5536V29.8588L27.2338 29.6956V24.0228L31.3357 24.2269L31.2127 30.7566L37.1604 32.9196C37.1604 32.9196 39.417 30.6043 40.4419 28.6345C41.8489 25.9304 40.077 19.8641 43.0671 20.513C44.8649 20.9032 44.913 24.5125 44.913 24.5125M22.1884 12.963C22.1884 12.963 22.4729 12.9924 22.8038 13.2487M22.1884 12.963L22.8038 13.2487M22.1884 12.963C22.1884 12.963 23.4086 12.0248 24.2804 11.5754C25.266 11.0674 26.9467 10.7184 26.9467 10.7184L28.9976 14.0241L26.7826 16.5544L26.0032 16.3911C26.0032 16.3911 26.2083 15.6402 25.47 14.7587C24.7317 13.8771 23.7731 14.3275 23.378 14.0241C23.0806 13.7956 23.1319 13.5028 22.8038 13.2487M38.3089 39.2454C38.3089 39.2454 43.3133 41.5716 43.1492 42.0613C42.9851 42.5511 38.2269 41.3267 37.7347 41.0819C37.2425 40.837 36.9553 40.3881 36.9553 40.3881C36.9553 40.3881 37.0772 39.7134 37.3655 39.4902C37.6538 39.2671 38.3089 39.2454 38.3089 39.2454ZM38.3089 39.2454V38.5516C38.3089 38.5516 41.9496 38.374 43.9696 37.3681C45.5312 36.5903 46.4311 36.0099 47.4972 34.6337C48.4158 33.4478 48.5825 32.7061 49.0149 31.3688C49.6483 29.4097 49.4661 27.2061 49.7122 26.145C49.9583 25.0839 50.3917 23.3447 51.6811 23.4106C53.0128 23.4788 53.1578 26.0226 53.1988 26.4307C53.2399 26.8388 53.6178 29.4549 53.1916 31.3688C52.638 33.855 52.1104 35.3459 50.2382 37.0824C49.1787 38.0651 48.4931 38.642 47.139 39.2157C45.6415 39.8502 44.6593 39.9444 43.0371 39.9503C41.1831 39.9571 38.3089 39.2454 38.3089 39.2454ZM4.42109 27.7774C4.85353 28.6254 5.38168 29.5682 5.90392 30.2669C8.16769 33.2955 10.1652 34.5751 13.6155 36.1437C16.9105 37.6417 19.0585 38.041 22.6807 38.1027C24.4803 38.1333 27.2748 37.7354 27.2748 37.7354C27.2748 37.7354 24.8913 39.5108 22.6807 40.0208C20.4701 40.5308 15.7485 40.2248 15.7485 40.2248L16.1177 41.2451L15.2152 40.2656C15.2152 40.2656 10.5801 40.5026 10.293 40.4697C10.0058 40.4368 8.14731 40.3476 7.17551 39.531C6.34212 38.8308 5.2066 37.4803 5.78086 37.1232C6.10902 36.9191 7.74978 38.8781 7.74978 38.8781C7.74978 38.8781 7.53085 38.3568 7.74978 38.1027C7.99589 37.817 9.34952 39.1637 9.34952 39.1637C9.34952 39.1637 9.60941 38.6943 9.67767 38.5924C9.92378 38.2251 11.0313 39.6127 11.0313 39.6127C11.0313 39.6127 11.8228 39.7151 12.3029 39.6943C12.7043 39.6769 13.3284 39.6127 13.3284 39.6127C13.3284 39.6127 11.2774 38.7771 9.92378 37.9802C8.57019 37.1833 7.79519 36.6132 6.60124 35.5316C4.41948 33.555 2.74549 30.8791 2.04812 29.5323C1.35074 28.1855 1.24686 26.1575 2.70444 25.9409C3.2016 25.8671 3.61555 26.283 3.91232 26.7375M4.42109 27.7774C4.22985 27.4024 4.05733 27.046 3.91232 26.7375M4.42109 27.7774C4.42109 27.7774 4.23671 27.2344 3.91232 26.7375M30.5564 14.7587L35.5607 20.513C35.5607 20.513 38.3627 18.4994 36.176 15.2484C33.9892 11.9974 30.5564 14.7587 30.5564 14.7587ZM28.0952 10.4735L30.5564 12.4732L30.0231 10.0654L28.0952 10.4735ZM16.938 23.4106C16.938 23.4106 17.6016 24.4838 18.2917 24.7982C18.9206 25.0848 20.0555 24.9615 20.0555 24.9615V31.328L19.6863 31.8177C19.6863 31.8177 18.1801 29.3051 17.6354 27.5326C17.1556 25.9715 16.938 23.4106 16.938 23.4106ZM20.4247 32.7564C20.4247 32.7564 25.388 31.981 26.1263 31.981C26.8646 31.981 27.562 32.048 28.2183 32.135C29.3399 32.2838 30.7349 32.8832 31.951 33.2053C33.764 33.6856 35.2325 33.8991 35.2325 33.8991C35.2325 33.8991 32.432 35.6032 30.1051 36.1437C28.7217 36.4651 26.1263 36.6335 26.1263 36.6335C26.1263 36.6335 25.9622 36.6335 24.4445 35.8172C22.9268 35.001 21.7373 34.6887 20.4247 32.7564ZM22.1064 30.3893L22.2295 23.6963L20.2196 23.6147L23.7062 20.3498V16.9625L26.2494 17.0441L26.3314 17.6971L29.5719 14.5954L35.3146 21.1252H33.5507L29.5719 16.3911L23.5831 22.2271L23.4601 30.0629L22.1064 30.3893ZM27.7671 30.0629V24.7166L30.7204 24.7982V30.6342L27.7671 30.0629ZM20.0145 32.0218C20.0145 32.0218 23.5401 30.321 25.9622 30.2669C27.8688 30.2243 30.9255 31.1648 30.9255 31.1648L37 33.5L33.3046 33.0421C33.3046 33.0421 30.8425 31.9872 28.9976 31.6545C27.3692 31.3608 26.4268 31.2765 24.7727 31.328C22.9589 31.3845 20.0145 32.0218 20.0145 32.0218ZM45.3232 24.5942C45.3875 24.1894 45.7302 21.842 46.9639 21.9006C48.9094 21.9931 49.1065 24.0179 49.138 25.4512C49.1902 27.8323 48.993 29.3471 48.1535 31.6545C47.4772 33.5133 46.7513 34.4965 45.2001 35.7764C42.9615 37.6236 38.1039 38.2251 38.1039 38.2251C38.1039 38.2251 37.8349 37.6629 37.5706 37.3681C37.3063 37.0732 36.8323 36.7559 36.8323 36.7559C36.8323 36.7559 40.1569 35.4112 41.7545 33.8583C43.3602 32.2975 44.3414 31.2432 44.913 29.0834C45.3228 27.535 45.2589 24.9989 45.3232 24.5942Z" stroke="black"/>
</svg>
